<svg width="32" height="32" viewBox="0 0 32 32" fill="none" xmlns="http://www.w3.org/2000/svg">
  <!-- Background -->
  <rect width="32" height="32" rx="6" fill="#0d1117"/>
  
  <!-- Chart bars representing data visualization -->
  <rect x="4" y="20" width="3.5" height="8" rx="1" fill="#22c55e"/>
  <rect x="10" y="15" width="3.5" height="13" rx="1" fill="#3b82f6"/>
  <rect x="16" y="10" width="3.5" height="18" rx="1" fill="#8b5cf6"/>
  <rect x="22" y="13" width="3.5" height="15" rx="1" fill="#06b6d4"/>
  
  <!-- Dollar sign badge -->
  <circle cx="25" cy="7" r="5.5" fill="#10b981"/>
  <path d="M24.5 4.5 L24.5 10 M26 5 L23.5 5 C23 5 22.5 5.5 22.5 6 C22.5 6.5 23 7 23.5 7 L25 7 C25.5 7 26 7.5 26 8 C26 8.5 25.5 9 25 9 L22.5 9" 
        stroke="white" stroke-width="1.2" stroke-linecap="round" fill="none"/>
</svg>
